<svg width="20" height="24" viewBox="0 0 20 24" fill="none" xmlns="http://www.w3.org/2000/svg">
<path fill-rule="evenodd" clip-rule="evenodd" d="M0.25 9.62014C0.25 4.31702 4.56702 0 9.87014 0C15.1733 0 19.4903 4.31702 19.5001 9.62014C19.5001 10.2238 19.4399 10.8325 19.3291 11.4264C19.3242 11.4614 19.3041 11.5674 19.2637 11.7484C19.1178 12.4024 18.9014 13.0365 18.6196 13.6453C17.5834 16.0856 15.299 19.8338 10.3028 23.8489C10.177 23.9496 10.0261 24 9.87504 24C9.72423 24 9.5731 23.9496 9.44731 23.8489C4.44614 19.8338 2.16697 16.0856 1.1305 13.6453C0.848739 13.0365 0.632262 12.3975 0.486603 11.7484C0.446288 11.5674 0.426163 11.4614 0.421005 11.4264C0.305283 10.8325 0.25 10.2238 0.25 9.62014ZM17.9785 11.2048C17.9798 11.1998 17.9811 11.1949 17.9811 11.19C18.0816 10.6768 18.1319 10.1483 18.1319 9.61496C18.1319 5.06159 14.4237 1.35343 9.87037 1.35343C5.31681 1.35343 1.60884 5.06159 1.60884 9.61496C1.60884 10.1434 1.65891 10.6667 1.75966 11.1848C1.75966 11.1931 1.76114 11.1998 1.76247 11.2059C1.76357 11.2109 1.76456 11.2154 1.76456 11.2199C1.76569 11.2254 1.76704 11.2333 1.76879 11.2435C1.77506 11.28 1.78637 11.3459 1.81004 11.4364V11.4465C1.94073 12.01 2.12695 12.5636 2.36846 13.0866C2.37107 13.0892 2.37236 13.0931 2.37363 13.0969C2.37488 13.1006 2.3761 13.1043 2.37852 13.1067C3.31946 15.3357 5.38241 18.7371 9.87037 22.4451C14.3583 18.7371 16.4213 15.3357 17.362 13.1067C17.3646 13.1042 17.3659 13.1003 17.3672 13.0965C17.3684 13.0928 17.3696 13.0891 17.372 13.0866C17.6187 12.5584 17.8049 12.01 17.9307 11.4465V11.4364C17.9558 11.3207 17.971 11.2453 17.9759 11.2199C17.9759 11.2149 17.9772 11.2098 17.9785 11.2048ZM3.76217 9.72585C3.76217 6.35983 6.50435 3.61764 9.87037 3.61764C13.2363 3.61764 15.9783 6.35983 15.9783 9.72585C15.9783 13.0918 13.2363 15.8341 9.87037 15.8341C6.50435 15.8341 3.76217 13.0918 3.76217 9.72585ZM5.12092 9.72582C5.12092 12.342 7.24921 14.4754 9.87058 14.4754C12.492 14.4754 14.6202 12.342 14.6202 9.72582C14.6202 7.10935 12.4868 4.97616 9.87058 4.97616C7.25412 4.97616 5.12092 7.10935 5.12092 9.72582Z" fill="#007EF3"/>
</svg>
